<?xml version="1.0" standalone="no"?>
<!DOCTYPE svg PUBLIC "-//W3C//DTD SVG 20010904//EN"
 "http://www.w3.org/TR/2001/REC-SVG-20010904/DTD/svg10.dtd">
<svg version="1.0" xmlns="http://www.w3.org/2000/svg"
 width="617.000000pt" height="617.000000pt" viewBox="0 0 617.000000 617.000000"
 preserveAspectRatio="xMidYMid meet">
<metadata>
Created by potrace 1.14, written by Peter Selinger 2001-2017
</metadata>
<g transform="translate(0.000000,617.000000) scale(0.100000,-0.100000)"
fill="#000000" stroke="none">
<path d="M2910 6084 c-80 -47 -156 -90 -170 -97 -14 -6 -27 -14 -30 -18 -3 -3
-12 -8 -20 -12 -8 -4 -22 -11 -30 -17 -12 -8 -145 -85 -280 -161 -14 -8 -28
-18 -32 -24 -4 -5 -8 -6 -8 -1 0 5 -8 2 -17 -6 -10 -8 -38 -26 -63 -39 -25
-13 -47 -27 -50 -30 -3 -3 -12 -8 -20 -12 -8 -3 -42 -22 -75 -42 -33 -20 -72
-41 -87 -48 -16 -6 -28 -15 -28 -19 0 -4 -4 -8 -9 -8 -5 0 -34 -14 -63 -32
-29 -17 -63 -38 -75 -45 -13 -7 -26 -14 -30 -14 -5 -1 -19 -9 -33 -19 -14 -9
-117 -70 -230 -135 -113 -65 -226 -131 -253 -146 -26 -16 -52 -29 -57 -29 -6
0 -10 -4 -10 -10 0 -5 -4 -10 -10 -10 -5 0 -44 -20 -86 -45 -41 -25 -77 -45
-80 -45 -2 0 -27 -15 -56 -33 -29 -19 -60 -37 -68 -40 -8 -4 -31 -17 -50 -28
-19 -12 -55 -33 -80 -47 -25 -14 -56 -32 -70 -41 -14 -10 -36 -23 -50 -29 -14
-7 -34 -18 -45 -25 -11 -7 -62 -36 -112 -65 -51 -29 -102 -65 -113 -79 -20
-26 -20 -35 -20 -1545 0 -1123 3 -1525 11 -1541 13 -24 19 -29 85 -67 91 -53
667 -386 702 -406 84 -47 120 -68 172 -99 59 -36 555 -322 630 -363 25 -13 50
-28 55 -32 9 -6 291 -170 380 -220 17 -9 131 -76 255 -147 124 -72 241 -139
260 -150 19 -11 51 -30 70 -41 19 -12 46 -22 58 -22 22 0 90 26 102 39 6 7 83
50 117 66 13 5 23 13 23 18 0 4 4 7 9 7 5 0 49 23 98 51 48 28 104 60 123 71
19 11 91 53 160 93 69 40 141 82 160 93 19 11 62 35 95 54 33 19 71 41 85 49
14 8 33 20 43 28 9 8 17 10 17 5 0 -5 4 -4 8 2 4 6 39 28 77 49 39 22 72 43
73 47 2 4 7 8 12 8 4 0 52 25 106 57 55 31 116 66 136 77 20 12 103 59 184
106 80 47 158 92 173 100 14 8 115 67 224 130 204 118 240 139 391 225 48 28
95 55 104 60 10 6 47 28 84 49 36 22 71 50 77 63 8 17 11 467 11 1539 0 1414
-1 1518 -17 1545 -10 16 -23 29 -30 29 -7 0 -13 3 -13 8 0 4 -13 13 -30 20
-16 7 -45 24 -65 37 -19 14 -35 22 -35 19 0 -3 -12 3 -27 14 -49 34 -413 242
-423 242 -5 0 -10 5 -10 10 0 6 -5 10 -10 10 -6 0 -46 22 -89 49 -44 27 -81
47 -84 45 -2 -3 -10 2 -17 11 -7 8 -19 15 -26 15 -8 0 -14 5 -14 10 0 6 -5 10
-10 10 -6 0 -65 32 -133 71 -67 40 -137 80 -154 90 -18 11 -48 27 -65 38 -18
10 -76 43 -128 73 -52 30 -140 81 -195 113 -55 32 -120 69 -145 83 -25 13 -49
27 -55 32 -5 4 -30 19 -55 32 -79 44 -574 330 -600 347 -14 9 -36 22 -50 28
-14 7 -43 24 -65 38 -62 39 -122 65 -147 65 -13 -1 -88 -39 -168 -86z m215
-152 c17 -10 50 -30 75 -44 25 -14 101 -58 170 -98 69 -40 139 -81 157 -91 17
-10 50 -29 72 -43 22 -15 43 -26 46 -26 3 0 45 -23 93 -51 165 -98 643 -375
767 -445 23 -12 193 -110 379 -218 186 -108 342 -196 347 -196 5 0 9 -4 9 -10
0 -5 4 -10 9 -10 4 0 78 -40 162 -88 l154 -89 3 -1436 2 -1435 -47 -29 c-27
-16 -55 -32 -63 -36 -8 -4 -30 -16 -48 -27 -18 -11 -124 -73 -235 -137 -111
-64 -245 -141 -297 -171 -52 -30 -108 -62 -125 -71 -16 -9 -31 -19 -33 -23 -2
-5 -8 -8 -13 -8 -5 0 -46 -22 -91 -49 -46 -27 -182 -106 -303 -175 -121 -70
-227 -130 -235 -135 -8 -5 -91 -53 -185 -107 -93 -54 -173 -102 -177 -108 -4
-6 -8 -8 -8 -4 0 6 -104 -52 -127 -72 -7 -5 -15 -10 -18 -10 -3 0 -87 -47
-186 -105 -100 -58 -185 -105 -188 -105 -3 0 -6 633 -5 1408 0 774 -3 1417 -8
1430 -4 13 -14 29 -21 36 -15 14 -132 86 -141 86 -4 0 -35 17 -69 39 -53 33
-126 76 -307 179 -19 11 -91 52 -160 92 -69 40 -145 84 -170 98 -25 14 -74 42
-109 64 -34 21 -64 38 -66 38 -2 0 -39 21 -82 47 -43 25 -94 55 -113 65 -19
11 -44 25 -55 31 -11 7 -67 39 -125 72 -58 32 -107 62 -110 65 -5 5 -64 38
-125 69 -16 9 -32 19 -35 22 -5 5 -156 90 -174 98 -6 2 -15 8 -21 13 -16 13
-354 208 -362 208 -3 0 -14 6 -22 14 -9 7 -38 26 -66 41 -93 51 -135 77 -135
84 0 3 28 22 63 41 34 19 70 39 79 45 9 5 45 26 80 46 144 83 455 263 483 280
17 11 37 22 45 26 8 4 48 26 88 50 40 24 77 43 82 43 6 0 10 4 10 8 0 4 12 13
28 20 15 7 45 23 67 36 65 38 422 245 458 265 17 10 55 31 82 48 28 16 57 32
65 36 8 4 29 15 45 26 50 30 389 227 405 234 8 4 76 43 150 87 74 44 140 80
145 80 6 0 24 -8 40 -18z"/>
<path d="M2405 5416 c-42 -18 -56 -39 -61 -86 -5 -59 20 -80 256 -215 113 -65
220 -126 238 -136 17 -11 47 -27 65 -37 99 -57 229 -133 265 -156 23 -14 43
-26 45 -26 2 0 82 -45 176 -100 95 -55 176 -100 181 -100 6 0 10 -4 10 -10 0
-5 4 -10 9 -10 8 0 289 -160 431 -245 30 -18 73 -43 95 -55 92 -51 130 -75
133 -82 2 -4 12 -8 23 -8 10 0 19 -4 19 -9 0 -5 8 -11 18 -14 9 -4 35 -17 57
-30 22 -12 66 -38 97 -56 32 -18 61 -37 64 -42 3 -5 9 -7 13 -5 4 3 19 -5 35
-17 l27 -22 0 -1289 c1 -1111 3 -1293 16 -1312 19 -30 73 -55 104 -47 37 9 81
60 79 91 -1 15 -1 32 0 37 2 14 2 148 0 160 -1 6 -1 15 0 20 5 27 1 315 -5
325 -3 5 -3 10 2 10 7 0 8 100 3 210 0 14 0 109 1 212 0 103 -2 191 -6 197 -3
6 -3 11 2 11 9 0 8 272 -1 295 -3 8 -2 15 2 15 4 0 7 61 7 135 0 74 -4 135 -8
135 -5 0 -5 5 -1 11 3 6 6 84 6 174 0 90 -3 168 -6 174 -4 6 -4 11 1 11 7 0 7
58 2 270 0 8 1 39 3 68 2 28 0 52 -4 52 -4 0 -3 13 2 29 4 16 7 31 5 33 -2 2
-5 19 -8 38 -6 50 -25 76 -69 97 -21 10 -38 21 -38 26 0 4 -9 7 -20 7 -11 0
-20 4 -20 8 0 5 -27 23 -60 41 -33 17 -94 51 -135 76 -40 25 -78 45 -84 45 -6
0 -11 4 -11 8 0 5 -15 15 -32 24 -29 13 -228 128 -568 326 -52 30 -113 65
-135 77 -22 12 -96 55 -165 95 -68 40 -139 81 -157 91 -51 29 -90 52 -188 109
-114 66 -170 99 -261 151 -21 11 -106 61 -190 110 -131 76 -214 120 -226 119
-2 -1 -17 -7 -33 -14z"/>
<path d="M1750 5044 c-25 -8 -54 -56 -54 -90 0 -61 13 -72 294 -232 19 -10
122 -70 228 -131 106 -61 209 -121 230 -133 20 -12 48 -28 62 -36 14 -7 42
-24 62 -35 326 -190 574 -333 583 -336 5 -2 27 -15 48 -28 21 -13 53 -32 70
-42 18 -10 95 -55 172 -99 77 -45 223 -130 325 -188 l185 -107 0 -1291 0
-1291 22 -31 c40 -56 140 -48 166 14 9 23 12 331 11 1343 -1 723 -2 1324 -3
1335 -1 30 -38 63 -112 103 -35 19 -66 37 -69 41 -3 3 -18 13 -35 22 -16 8
-102 56 -190 108 -88 51 -180 104 -205 118 -25 14 -113 65 -197 113 -83 49
-167 97 -185 107 -69 39 -149 86 -245 144 -34 21 -65 38 -67 38 -2 0 -50 27
-106 60 -56 33 -103 60 -104 60 -2 0 -56 32 -120 70 -65 39 -119 70 -120 70
-2 0 -55 30 -117 66 -63 37 -134 78 -159 92 -25 14 -72 42 -105 61 -33 20 -71
42 -85 49 -14 7 -40 22 -58 34 -33 20 -92 31 -122 22z"/>
</g>
</svg>
