<?xml version="1.0" encoding="UTF-8" standalone="no"?>
<svg
   xmlns:dc="http://purl.org/dc/elements/1.1/"
   xmlns:cc="http://creativecommons.org/ns#"
   xmlns:rdf="http://www.w3.org/1999/02/22-rdf-syntax-ns#"
   xmlns:svg="http://www.w3.org/2000/svg"
   xmlns="http://www.w3.org/2000/svg"
   xmlns:sodipodi="http://sodipodi.sourceforge.net/DTD/sodipodi-0.dtd"
   xmlns:inkscape="http://www.inkscape.org/namespaces/inkscape"
   width="536.94873"
   height="616.92065"
   viewBox="0 0 142.06768 163.22693"
   version="1.1"
   id="svg8"
   inkscape:version="1.0.2-2 (e86c870879, 2021-01-15)"
   sodipodi:docname="logo.svg">
  <defs
     id="defs2" />
  <sodipodi:namedview
     id="base"
     pagecolor="#ffffff"
     bordercolor="#666666"
     borderopacity="1.0"
     inkscape:pageopacity="0.0"
     inkscape:pageshadow="2"
     inkscape:zoom="1"
     inkscape:cx="241.17197"
     inkscape:cy="300.42001"
     inkscape:document-units="px"
     inkscape:current-layer="layer1"
     inkscape:document-rotation="0"
     showgrid="true"
     units="px"
     inkscape:pagecheckerboard="true"
     inkscape:snap-object-midpoints="true"
     inkscape:snap-center="true"
     inkscape:snap-intersection-paths="true"
     inkscape:snap-midpoints="true"
     inkscape:snap-page="false"
     inkscape:object-nodes="true"
     inkscape:snap-grids="false"
     inkscape:snap-smooth-nodes="true"
     inkscape:window-width="1920"
     inkscape:window-height="1137"
     inkscape:window-x="-8"
     inkscape:window-y="-8"
     inkscape:window-maximized="1"
     fit-margin-top="0"
     fit-margin-left="0"
     fit-margin-right="0"
     fit-margin-bottom="0">
    <inkscape:grid
       type="xygrid"
       id="grid11"
       originx="-3.0531718"
       originy="-3.0532112" />
  </sodipodi:namedview>
  <metadata
     id="metadata5">
    <rdf:RDF>
      <cc:Work
         rdf:about="">
        <dc:format>image/svg+xml</dc:format>
        <dc:type
           rdf:resource="http://purl.org/dc/dcmitype/StillImage" />
        <dc:title></dc:title>
      </cc:Work>
    </rdf:RDF>
  </metadata>
  <g
     inkscape:label="Base"
     inkscape:groupmode="layer"
     id="layer1"
     style="display:inline"
     sodipodi:insensitive="true"
     transform="translate(-3.0531719,-3.0532111)">
    <path
       sodipodi:type="star"
       style="opacity:0.999;fill:none;stroke:#2a9fd6;stroke-width:5.29167;stroke-linecap:round;stroke-linejoin:round;stroke-miterlimit:4;stroke-dasharray:none;stroke-opacity:1"
       id="path37"
       sodipodi:sides="6"
       sodipodi:cx="74.087013"
       sodipodi:cy="84.666672"
       sodipodi:r1="78.967667"
       sodipodi:r2="68.388"
       sodipodi:arg1="1.5707963"
       sodipodi:arg2="2.0943951"
       inkscape:flatsided="true"
       inkscape:rounded="0"
       inkscape:randomized="0"
       d="M 74.087015,163.63434 5.6990089,124.15051 5.6990068,45.18284 74.087011,5.6990051 142.47502,45.182837 l 0,78.967663 z" />
    <path
       style="fill:none;fill-opacity:1;stroke:#2a9fd6;stroke-width:5.29167;stroke-linecap:butt;stroke-linejoin:round;stroke-miterlimit:4;stroke-dasharray:none;stroke-opacity:1"
       d="M 5.6990069,45.182841 74.087016,84.666674 v 78.967666"
       id="path862" />
    <path
       style="opacity:0.998;fill:#2a9fd6;fill-opacity:1;stroke:none;stroke-width:0.264583px;stroke-linecap:butt;stroke-linejoin:miter;stroke-opacity:1"
       d="m 5.6990079,84.666674 -1e-6,-39.483833 68.3880111,39.483833 -2e-6,78.967666 -68.388007,-39.48383 -1.1e-6,-39.483836"
       id="path864" />
  </g>
  <g
     inkscape:groupmode="layer"
     id="layer4"
     inkscape:label="Play"
     sodipodi:insensitive="true"
     transform="translate(-3.0531719,-3.0532111)">
    <path
       style="fill:#ffffff;fill-opacity:1;stroke:#fffffa;stroke-width:5.29167;stroke-linecap:round;stroke-linejoin:round;stroke-miterlimit:4;stroke-dasharray:none;stroke-opacity:1"
       d="m 22.779473,94.528089 0,-9.870961 25.620702,24.663082 -25.620701,4.94979 -1e-6,-19.741911"
       id="path1210"
       sodipodi:nodetypes="ccccc" />
  </g>
  <g
     inkscape:groupmode="layer"
     id="layer2"
     inkscape:label="Tape"
     sodipodi:insensitive="true"
     style="display:inline"
     transform="translate(-3.0531719,-3.0532111)">
    <path
       style="fill:none;stroke:#9933cc;stroke-width:5.29167;stroke-linecap:round;stroke-linejoin:round;stroke-miterlimit:4;stroke-dasharray:none;stroke-opacity:1"
       d="m 39.917818,35.288015 59.8147,34.572218 0.01654,69.087167"
       id="path1141" />
    <path
       style="fill:none;stroke:#77b300;stroke-width:5.29167;stroke-linecap:round;stroke-linejoin:round;stroke-miterlimit:4;stroke-dasharray:none;stroke-opacity:1"
       d="m 57.01482,25.417059 59.8147,34.572218 0.0165,69.087163"
       id="path1141-3" />
  </g>
  <g
     inkscape:groupmode="layer"
     id="layer3"
     inkscape:label="Grid"
     style="display:none"
     sodipodi:insensitive="true"
     transform="translate(-3.0531719,-3.0532111)">
    <path
       style="fill:none;stroke:#000000;stroke-width:0.264583px;stroke-linecap:butt;stroke-linejoin:miter;stroke-opacity:1"
       d="m 39.89301,25.440922 68.38801,39.483833 v 78.967665"
       id="path15" />
    <path
       style="display:inline;fill:none;stroke:#000000;stroke-width:0.264583px;stroke-linecap:butt;stroke-linejoin:miter;stroke-opacity:1"
       d="m 22.812544,35.283239 68.38801,39.483833 v 78.967668"
       id="path15-7" />
    <path
       style="display:inline;fill:none;stroke:#000000;stroke-width:0.264583px;stroke-linecap:butt;stroke-linejoin:miter;stroke-opacity:1"
       d="M 56.990014,15.569963 125.37802,55.053796 V 134.02147"
       id="path15-7-4" />
    <path
       style="display:inline;fill:none;stroke:#000000;stroke-width:0.264583px;stroke-linecap:butt;stroke-linejoin:miter;stroke-opacity:1"
       d="M 31.36105,30.347761 99.749056,69.831594 V 148.79926"
       id="path15-7-5" />
    <path
       style="display:inline;fill:none;stroke:#000000;stroke-width:0.264583px;stroke-linecap:butt;stroke-linejoin:miter;stroke-opacity:1"
       d="m 48.44151,20.505446 68.38801,39.483831 v 78.967673"
       id="path15-7-9" />
    <path
       style="display:inline;fill:none;stroke:#000000;stroke-width:0.264583px;stroke-linecap:butt;stroke-linejoin:miter;stroke-opacity:1"
       d="m 39.859939,143.83514 -2e-6,-78.967666 68.388003,-39.483836"
       id="path102-8" />
    <path
       style="display:inline;fill:none;stroke:#000000;stroke-width:0.264583px;stroke-linecap:butt;stroke-linejoin:miter;stroke-opacity:1"
       d="m 22.779474,134.01192 -2e-6,-78.967667 68.388006,-39.483836"
       id="path102-5" />
    <path
       style="display:inline;fill:none;stroke:#000000;stroke-width:0.264583px;stroke-linecap:butt;stroke-linejoin:miter;stroke-opacity:1"
       d="m 56.940404,153.69655 -2e-6,-78.967665 68.388008,-39.483836"
       id="path102-6" />
    <path
       style="fill:none;stroke:#000000;stroke-width:0.264583px;stroke-linecap:butt;stroke-linejoin:miter;stroke-opacity:1"
       d="M 74.020867,84.552107 56.973477,74.786169 39.893013,64.924759 22.779474,55.044254 5.6990069,45.182841"
       id="path146" />
    <path
       style="display:inline;fill:none;stroke:#000000;stroke-width:0.264583px;stroke-linecap:butt;stroke-linejoin:miter;stroke-opacity:1"
       d="m 14.239242,129.08121 -2e-6,-78.967662 68.38801,-39.483836"
       id="path102-4" />
    <path
       style="display:inline;fill:none;stroke:#000000;stroke-width:0.264583px;stroke-linecap:butt;stroke-linejoin:miter;stroke-opacity:1"
       d="m 31.336245,138.95218 -1e-6,-78.967674 68.388006,-39.483835"
       id="path102-67" />
    <path
       style="display:inline;fill:none;stroke:#000000;stroke-width:0.264583px;stroke-linecap:butt;stroke-linejoin:miter;stroke-opacity:1"
       d="m 48.400174,148.76585 -2e-6,-78.967673 68.388008,-39.483836"
       id="path102-86" />
    <path
       style="display:inline;fill:none;stroke:#000000;stroke-width:0.264583px;stroke-linecap:butt;stroke-linejoin:miter;stroke-opacity:1"
       d="m 65.497174,158.6368 -2e-6,-78.967662 68.388008,-39.483836"
       id="path102-0" />
    <path
       style="display:inline;fill:none;stroke:#000000;stroke-width:0.264583px;stroke-linecap:butt;stroke-linejoin:miter;stroke-opacity:1"
       d="M 14.280581,40.190081 82.668588,79.673914 V 158.64158"
       id="path15-7-8" />
    <path
       style="display:inline;fill:none;stroke:#000000;stroke-width:0.264583px;stroke-linecap:butt;stroke-linejoin:miter;stroke-opacity:1"
       d="m 65.53851,10.634484 68.38801,39.483833 v 78.967663"
       id="path15-7-6" />
    <path
       style="fill:none;stroke:#000000;stroke-width:0.264583px;stroke-linecap:butt;stroke-linejoin:miter;stroke-opacity:1"
       d="m 74.087018,84.666674 8.548497,-4.935474 8.548503,-4.935482 8.5485,-4.935485 8.548502,-4.935477 8.5485,-4.935479 8.5485,-4.935479 8.5485,-4.93548 8.5485,-4.935482"
       id="path217" />
    <path
       style="display:inline;fill:none;stroke:#000000;stroke-width:0.264583px;stroke-linecap:butt;stroke-linejoin:miter;stroke-opacity:1"
       d="M 5.6990073,84.666677 74.087016,124.15051 142.47502,84.666667"
       id="path219-1" />
    <path
       style="display:inline;fill:none;stroke:#000000;stroke-width:0.264583px;stroke-linecap:butt;stroke-linejoin:miter;stroke-opacity:1"
       d="M 5.6990125,64.924764 74.087021,104.40859 142.47502,64.924754"
       id="path219" />
    <path
       style="display:inline;fill:none;stroke:#000000;stroke-width:0.264583px;stroke-linecap:butt;stroke-linejoin:miter;stroke-opacity:1"
       d="M 5.6990085,104.40859 74.087017,143.89242 142.47502,104.40858"
       id="path219-0" />
    <path
       style="fill:none;stroke:#000000;stroke-width:0.264583px;stroke-linecap:butt;stroke-linejoin:miter;stroke-opacity:1"
       d="m 74.087018,84.685769 v 19.722821 19.74192 19.74191 l -2e-6,19.74192"
       id="path261" />
    <path
       style="display:inline;fill:none;stroke:#000000;stroke-width:0.264583px;stroke-linecap:butt;stroke-linejoin:miter;stroke-opacity:1"
       d="M 5.699008,55.063347 74.087018,94.54718 142.47502,55.063337"
       id="path219-2" />
    <path
       style="display:inline;fill:none;stroke:#000000;stroke-width:0.264583px;stroke-linecap:butt;stroke-linejoin:miter;stroke-opacity:1"
       d="M 5.699012,74.795721 74.087018,114.27955 142.47502,74.795711"
       id="path219-16" />
    <path
       style="display:inline;fill:none;stroke:#000000;stroke-width:0.264583px;stroke-linecap:butt;stroke-linejoin:miter;stroke-opacity:1"
       d="M 5.699013,94.537635 74.087018,134.02146 142.47503,94.537625"
       id="path219-06" />
    <path
       style="display:inline;fill:none;stroke:#000000;stroke-width:0.264583px;stroke-linecap:butt;stroke-linejoin:miter;stroke-opacity:1"
       d="m 5.699013,114.27955 68.388009,39.48383 68.387998,-39.48384"
       id="path219-8" />
    <path
       style="fill:none;stroke:#000000;stroke-width:0.264583px;stroke-linecap:butt;stroke-linejoin:miter;stroke-opacity:1"
       d="m 5.6990122,74.795723 5e-7,-9.870959 -4.5e-6,-9.861415 -1.3e-6,-9.880508 8.6146431,-4.973666 8.515431,-4.916387 8.548503,-4.93548 8.515427,-4.916386 8.5485,-4.935476 8.548505,-4.935483 8.548497,-4.935478 8.5485,-4.9354797 8.540237,4.9307077 8.540229,4.930704 8.556773,4.940254 8.490618,4.902061 8.54024,4.930705 8.54023,4.930707 8.55677,4.940252 8.62291,4.97844 v 9.880502 9.861418 9.870957 9.870956 9.870964 9.870947 9.87096 9.87096 l -8.5485,4.93548 -8.5485,4.93548 -8.5485,4.93548 -8.5485,4.93548 -8.531963,4.90684 -8.548503,4.93548 -8.531966,4.90684 -8.581572,4.99276 -8.589841,-4.99754 -8.556771,-4.94025 -8.540229,-4.9307 -8.507162,-4.87342 -8.556768,-4.94026 -8.556771,-4.94025 -8.540232,-4.93071 -8.540233,-4.9307 4e-6,-9.87096 -4.5e-6,-9.87096 4.5e-6,-9.870954 -5.1e-6,-9.870957 4.3e-6,-9.870956"
       id="path299" />
  </g>
</svg>
